<svg xmlns="http://www.w3.org/2000/svg" viewBox="0 0 32 32" fill="none">
  <rect width="32" height="32" rx="16" fill="url(#g)"/>
  <path d="M16 10c-1.5 0-2.8.8-3.5 2a4 4 0 0 0 0 4c.7 1.2 2 2 3.5 2s2.8-.8 3.5-2a4 4 0 0 0 0-4C18.8 10.8 17.5 10 16 10z" fill="white"/>
  <path d="M16 18c-2.2 0-4 1.3-5 3.2a6 6 0 0 0 0 5.6C12 28.7 13.8 30 16 30s4-1.3 5-3.2a6 6 0 0 0 0-5.6C20 19.3 18.2 18 16 18z" fill="white"/>
  <defs>
    <linearGradient id="g" x1="0" y1="0" x2="32" y2="32" gradientUnits="userSpaceOnUse">
      <stop stop-color="#A8B5FF"/>
      <stop offset=".5" stop-color="#FFD4B5"/>
      <stop offset="1" stop-color="#C8F5E8"/>
    </linearGradient>
  </defs>
</svg>
