<svg width="200" height="40" viewBox="0 0 200 40" fill="none" xmlns="http://www.w3.org/2000/svg">
  <!-- Symbol: Two overlapping organic shapes (pebbles) representing balance -->
  <path d="M28 20C28 26.6274 22.6274 32 16 32C9.37258 32 4 26.6274 4 20C4 13.3726 9.37258 8 16 8C22.6274 8 28 13.3726 28 20Z" fill="#17A2B8" fill-opacity="0.8"/>
  <path d="M36 20C36 26.6274 30.6274 32 24 32C17.3726 32 12 26.6274 12 20C12 13.3726 17.3726 8 24 8C30.6274 8 36 13.3726 36 20Z" fill="#4ECDC4" fill-opacity="0.6"/>
  
  <!-- Typography: "-<>F8>=0;L=K9 10;0=A" -->
  <text x="48" y="25" font-family="Inter, system-ui, sans-serif" font-size="18" font-weight="700" fill="#1A1D2E">-<>F8>=0;L=K9</text>
  <text x="48" y="25" font-family="Inter, system-ui, sans-serif" font-size="18" font-weight="700" fill="#1A1D2E" style="visibility: hidden;">-<>F8>=0;L=K9</text>
  <!-- Second part of the name if needed, but usually it's one line or two. Let's try one line first -->
  <text x="175" y="25" font-family="Inter, system-ui, sans-serif" font-size="18" font-weight="400" fill="#1A1D2E"></text>
</svg>
